<?xml version="1.0" encoding="utf-8"?>
<!-- Generator: Adobe Illustrator 26.5.2, SVG Export Plug-In . SVG Version: 6.00 Build 0)  -->
<svg version="1.1" id="Layer_1" xmlns="http://www.w3.org/2000/svg" xmlns:xlink="http://www.w3.org/1999/xlink" x="0px" y="0px"
	 viewBox="0 0 126.9 117" style="enable-background:new 0 0 126.9 117;" xml:space="preserve">
<style type="text/css">
	.st0{fill:#2916FC;}
	.st1{fill:#FFFFFF;}
	.st2{fill:url(#SVGID_1_);}
	.st3{opacity:0.68;fill:#FFFFFF;enable-background:new    ;}
	.st4{fill:url(#SVGID_00000016053659272819185110000012848892543513629577_);}
	.st5{fill:#0C162D;}
</style>
<path class="st0" d="M32.4,99.9c-1.1,0-2.2-0.3-3.1-0.8s-1.7-1.3-2.3-2.3L2.1,53.7c-0.5-1-0.8-2-0.8-3.1s0.3-2.2,0.8-3.1L27,4.4
	c0.5-1,1.3-1.7,2.3-2.3c1-0.5,2-0.8,3.1-0.8h49.7c1.1,0,2.2,0.3,3.1,0.8c0.9,0.5,1.7,1.3,2.3,2.3l24.9,43.1c0.6,1,0.8,2,0.8,3.1
	s-0.3,2.2-0.8,3.1L87.5,96.8c-0.6,0.9-1.3,1.7-2.3,2.3s-2,0.8-3.1,0.8H32.4z"/>
<path class="st1" d="M82.1,2.6c0.9,0,1.7,0.2,2.5,0.7S86,4.3,86.4,5l24.9,43.1c0.4,0.8,0.7,1.6,0.7,2.5s-0.2,1.7-0.7,2.5L86.4,96.1
	c-0.4,0.8-1.1,1.4-1.8,1.8c-0.8,0.4-1.6,0.7-2.5,0.7H32.4c-0.9,0-1.7-0.2-2.5-0.7c-0.8-0.4-1.4-1.1-1.8-1.8L3.2,53.1
	c-0.4-0.8-0.7-1.6-0.7-2.5s0.2-1.7,0.7-2.5L28.1,5c0.4-0.8,1.1-1.4,1.8-1.8s1.6-0.7,2.5-0.7L82.1,2.6L82.1,2.6z M82.1,0H32.4
	c-1.3,0-2.6,0.3-3.7,1c-1.1,0.7-2.1,1.6-2.7,2.8L1,46.8c-0.7,1.1-1,2.4-1,3.8s0.3,2.6,1,3.8l24.9,43.1c0.7,1.1,1.6,2.1,2.8,2.8
	s2.4,1,3.8,1h49.7c1.3,0,2.6-0.3,3.8-1s2.1-1.6,2.8-2.8l24.9-43.1c0.7-1.1,1-2.4,1-3.8s-0.3-2.6-1-3.8L88.6,3.8
	C87.9,2.6,87,1.7,85.9,1S83.4,0,82.1,0L82.1,0L82.1,0z"/>
<path class="st1" d="M54.3,25v49.6c0,0.7-0.3,1.3-0.8,1.8c-0.5,0.5-1.1,0.8-1.8,0.8h-9.5c-0.7,0-1.3-0.3-1.8-0.8s-0.8-1.1-0.8-1.8
	V25c0-0.7,0.3-1.3,0.8-1.8s1.1-0.8,1.8-0.8h9.5c0.7,0,1.3,0.3,1.8,0.8S54.3,24.3,54.3,25z M80.6,26.4L67.8,45.6
	c-0.3,0.4-0.4,0.9-0.4,1.3s0.1,1,0.3,1.4l14.8,25.1c0.2,0.4,0.3,0.8,0.3,1.3c0,0.4-0.1,0.9-0.3,1.3c-0.2,0.4-0.5,0.7-0.9,0.9
	s-0.8,0.3-1.3,0.3H69.5c-0.4,0-0.9-0.1-1.3-0.3c-0.4-0.2-0.7-0.6-0.9-0.9L52.6,49.4c-0.2-0.4-0.3-0.8-0.3-1.3c0-0.5,0.2-0.9,0.4-1.3
	l14.7-23.1c0.2-0.4,0.6-0.7,0.9-0.9c0.4-0.2,0.8-0.3,1.2-0.3h9c0.4,0,0.9,0.1,1.3,0.4c0.4,0.2,0.7,0.6,0.9,1
	c0.2,0.4,0.3,0.9,0.3,1.3C81,25.6,80.9,26,80.6,26.4L80.6,26.4L80.6,26.4z"/>
<linearGradient id="SVGID_1_" gradientUnits="userSpaceOnUse" x1="69.82" y1="1033.4449" x2="110.69" y2="1033.4449" gradientTransform="matrix(1 0 0 1 0 -962)">
	<stop  offset="0" style="stop-color:#FF7879"/>
	<stop  offset="0.21" style="stop-color:#FC777B"/>
	<stop  offset="0.36" style="stop-color:#F27281"/>
	<stop  offset="0.5" style="stop-color:#E26B8A"/>
	<stop  offset="0.63" style="stop-color:#CB6098"/>
	<stop  offset="0.75" style="stop-color:#AE52AA"/>
	<stop  offset="0.86" style="stop-color:#8A41C0"/>
	<stop  offset="0.98" style="stop-color:#602EDA"/>
	<stop  offset="1" style="stop-color:#5529E0"/>
</linearGradient>
<path class="st2" d="M110.7,59.5L91.8,92.1H81.8l-9.2-16l-2.7-4.7l4.7-8.1l3.8-6.6l3.4-6h23.9L110.7,59.5L110.7,59.5z"/>
<path class="st3" d="M79.8,77.2h-9.1l-0.6-1l-2.7-4.7l4.7-8.1l2-3.4L82,73.4c0.2,0.4,0.3,0.8,0.3,1.3c0,0.4-0.1,0.9-0.3,1.3
	c-0.2,0.4-0.5,0.7-0.9,0.9C80.7,77.1,80.2,77.2,79.8,77.2L79.8,77.2L79.8,77.2z"/>
<path class="st0" d="M32.4,100c-1.1,0-2.2-0.3-3.1-0.8c-1-0.6-1.7-1.3-2.3-2.3L2.1,53.8c-0.5-1-0.8-2-0.8-3.1s0.3-2.2,0.8-3.1
	L27,4.4c0.5-1,1.3-1.7,2.3-2.3c1-0.5,2-0.8,3.1-0.8h49.8c1.1,0,2.2,0.3,3.1,0.8s1.7,1.3,2.3,2.3l24.9,43.1c0.6,1,0.8,2,0.8,3.1
	s-0.3,2.2-0.8,3.1L87.6,96.9c-0.6,0.9-1.3,1.7-2.3,2.3c-0.9,0.6-2,0.8-3.1,0.8L32.4,100L32.4,100z"/>
<path class="st1" d="M82.2,2.6c0.9,0,1.7,0.2,2.5,0.7s1.4,1.1,1.8,1.8l24.9,43.1c0.4,0.8,0.7,1.6,0.7,2.5s-0.2,1.7-0.7,2.5
	L86.5,96.2c-0.4,0.8-1.1,1.4-1.8,1.8s-1.6,0.7-2.5,0.7H32.4c-0.9,0-1.7-0.2-2.5-0.7c-0.8-0.4-1.4-1.1-1.8-1.8L3.2,53.1
	c-0.4-0.8-0.7-1.6-0.7-2.5s0.2-1.7,0.7-2.5L28.1,5c0.4-0.8,1.1-1.4,1.8-1.8s1.6-0.7,2.5-0.7L82.2,2.6L82.2,2.6z M82.2,0H32.4
	c-1.3,0-2.6,0.3-3.8,1s-2.1,1.6-2.7,2.8L1,46.9c-0.7,1.1-1,2.4-1,3.8s0.3,2.6,1,3.8l24.9,43.1c0.7,1.1,1.6,2.1,2.8,2.8s2.4,1,3.8,1
	h49.8c1.3,0,2.6-0.3,3.8-1s2.1-1.6,2.8-2.8l24.9-43.1c0.7-1.1,1-2.4,1-3.8s-0.3-2.6-1-3.8L88.7,3.8C88,2.6,87.1,1.7,85.9,1
	C84.8,0.3,83.5,0,82.2,0L82.2,0z"/>
<path class="st1" d="M54.3,25v49.7c0,0.7-0.3,1.3-0.8,1.8c-0.5,0.5-1.1,0.8-1.8,0.8h-9.5c-0.7,0-1.3-0.3-1.8-0.8s-0.8-1.1-0.8-1.8
	V25c0-0.7,0.3-1.3,0.8-1.8s1.1-0.8,1.8-0.8h9.5c0.7,0,1.3,0.3,1.8,0.8S54.3,24.4,54.3,25z M80.7,26.5L67.8,45.6
	c-0.3,0.4-0.4,0.9-0.4,1.3s0.1,1,0.3,1.4l14.8,25.1c0.2,0.4,0.3,0.8,0.3,1.3c0,0.4-0.1,0.9-0.3,1.3c-0.2,0.4-0.5,0.7-0.9,0.9
	s-0.8,0.3-1.3,0.3H69.6c-0.4,0-0.9-0.1-1.3-0.3c-0.4-0.2-0.7-0.6-0.9-0.9L52.7,49.5c-0.2-0.4-0.3-0.8-0.3-1.3c0-0.5,0.2-0.9,0.4-1.3
	l14.7-23.2c0.2-0.4,0.6-0.7,0.9-0.9c0.4-0.2,0.8-0.3,1.2-0.3h9c0.4,0,0.9,0.1,1.3,0.4s0.7,0.6,0.9,1c0.2,0.4,0.3,0.9,0.3,1.3
	C81.1,25.6,80.9,26.1,80.7,26.5L80.7,26.5L80.7,26.5z"/>
<linearGradient id="SVGID_00000123411577586424042650000009874845512580443822_" gradientUnits="userSpaceOnUse" x1="69.89" y1="1033.515" x2="110.79" y2="1033.515" gradientTransform="matrix(1 0 0 1 0 -962)">
	<stop  offset="0" style="stop-color:#FF7879"/>
	<stop  offset="0.21" style="stop-color:#FC777B"/>
	<stop  offset="0.36" style="stop-color:#F27281"/>
	<stop  offset="0.5" style="stop-color:#E26B8A"/>
	<stop  offset="0.63" style="stop-color:#CB6098"/>
	<stop  offset="0.75" style="stop-color:#AE52AA"/>
	<stop  offset="0.86" style="stop-color:#8A41C0"/>
	<stop  offset="0.98" style="stop-color:#602EDA"/>
	<stop  offset="1" style="stop-color:#5529E0"/>
</linearGradient>
<path style="fill:url(#SVGID_00000123411577586424042650000009874845512580443822_);" d="M110.8,59.5L91.9,92.2H81.8l-9.2-16
	l-2.7-4.7l4.7-8.1l3.8-6.6l3.4-6h23.9L110.8,59.5L110.8,59.5z"/>
<path class="st3" d="M79.9,77.3h-9.1l-0.6-1l-2.7-4.7l4.7-8.1l2-3.4l7.9,13.4c0.2,0.4,0.3,0.8,0.3,1.3c0,0.4-0.1,0.9-0.3,1.3
	c-0.2,0.4-0.5,0.7-0.9,0.9S80.3,77.3,79.9,77.3C79.9,77.3,79.9,77.3,79.9,77.3z"/>
<path class="st5" d="M126.5,69c-0.2-0.6-0.4-1.1-0.7-1.6l-10.4-18l-1.2-2l-0.8-1.5c-0.4-0.6-0.8-1.2-1.3-1.7
	c-1.6-1.5-3.7-2.4-5.8-2.4H81.4c-1.2,0-2.4,0.3-3.5,0.8c-1.1,0.5-2.1,1.2-2.8,2.1c-0.3,0.4-0.6,0.8-0.9,1.2l-4.9,8.6l-7.5,12.9
	c0,0,0,0.1-0.1,0.1c-0.7,1.2-1,2.7-1,4.1s0.4,2.8,1.1,4.1l12.4,21.5c0.7,1.2,1.6,2.1,2.7,2.8c1.1,0.7,2.4,1.2,3.8,1.3h25.5
	c0.3,0,0.5,0,0.8,0l8.8,14.1c0.5,0.8,1.3,1.4,2.2,1.6s1.9,0.1,2.7-0.4l0.5-0.3c0.8-0.5,1.4-1.3,1.6-2.2s0.1-1.9-0.4-2.7l-9-14.2
	l12.3-21.3c0.6-1,0.9-2.1,1.1-3.2C126.9,71.3,126.8,70.1,126.5,69L126.5,69L126.5,69z M115,76.2l-9.2,16H81.9l-0.1-0.1l-9.2-15.9
	l-2.7-4.7l4.7-8.1l3.8-6.6l3.4-5.9h24l5,8.6l6.9,12L115,76.2L115,76.2z"/>
</svg>
