<svg width="1790" height="489" viewBox="0 0 1790 489" fill="none" xmlns="http://www.w3.org/2000/svg">
<path d="M467.328 90.8098C503.87 90.8098 531.862 97.3661 551.304 110.479C570.747 123.357 580.468 143.494 580.468 170.89C580.468 187.984 576.486 201.916 568.521 212.687C560.791 223.224 549.547 231.536 534.79 237.624C539.709 243.712 544.863 250.737 550.25 258.698C555.638 266.425 560.908 274.62 566.062 283.284C571.449 291.714 576.603 300.611 581.522 309.978C586.441 319.11 591.009 328.125 595.225 337.022H533.736C529.285 329.061 524.718 320.983 520.033 312.787C515.582 304.592 510.897 296.631 505.978 288.904C501.293 281.177 496.608 273.918 491.923 267.128C487.238 260.103 482.553 253.781 477.869 248.161H450.813V337.022H396V97.132C407.946 94.7905 420.244 93.1514 432.894 92.2148C445.777 91.2782 457.255 90.8098 467.328 90.8098ZM470.49 137.523C466.508 137.523 462.877 137.641 459.597 137.875C456.552 138.109 453.624 138.343 450.813 138.577V204.608H466.273C486.887 204.608 501.644 202.033 510.546 196.881C519.447 191.73 523.898 182.949 523.898 170.539C523.898 158.597 519.33 150.168 510.194 145.251C501.293 140.099 488.058 137.523 470.49 137.523Z" fill="#00B1D2"/>
<path d="M753.689 157.544C753.689 166.441 751.932 174.988 748.419 183.183C744.905 191.379 740.337 199.34 734.715 207.067C729.093 214.56 722.769 221.819 715.741 228.843C708.714 235.868 701.804 242.541 695.011 248.864C691.497 252.142 687.632 255.888 683.416 260.103C679.433 264.083 675.568 268.181 671.821 272.396C668.073 276.611 664.676 280.591 661.631 284.338C658.82 287.85 657.063 290.777 656.36 293.119H761.068V337.022H598.736C598.268 334.447 598.033 331.169 598.033 327.188C598.033 323.207 598.033 320.397 598.033 318.758C598.033 307.519 599.79 297.216 603.304 287.85C607.052 278.484 611.854 269.82 617.71 261.859C623.566 253.664 630.125 246.054 637.387 239.029C644.882 232.004 652.261 224.98 659.523 217.955C665.145 212.57 670.415 207.535 675.334 202.852C680.253 197.935 684.587 193.252 688.335 188.803C692.083 184.12 695.011 179.554 697.119 175.105C699.227 170.422 700.281 165.739 700.281 161.056C700.281 150.753 697.353 143.494 691.497 139.28C685.641 135.065 678.379 132.957 669.712 132.957C663.388 132.957 657.414 134.011 651.793 136.119C646.405 137.992 641.369 140.333 636.684 143.143C632.233 145.719 628.368 148.412 625.089 151.221C621.809 153.797 619.35 155.905 617.71 157.544L591.709 121.016C602.016 111.415 613.962 103.571 627.548 97.4832C641.369 91.1611 656.126 88 671.821 88C686.109 88 698.407 89.6391 708.714 92.9172C719.021 96.1954 727.454 100.878 734.013 106.966C740.806 112.82 745.725 120.079 748.77 128.743C752.049 137.172 753.689 146.773 753.689 157.544Z" fill="#00B1D2"/>
<path d="M819.749 292.416C822.326 292.65 825.254 292.884 828.533 293.119C832.047 293.119 836.146 293.119 840.831 293.119C868.238 293.119 888.5 286.211 901.617 272.396C914.969 258.581 921.645 239.497 921.645 215.145C921.645 189.623 915.321 170.305 902.672 157.192C890.022 144.08 869.994 137.523 842.588 137.523C838.84 137.523 834.975 137.641 830.993 137.875C827.01 137.875 823.263 138.109 819.749 138.577V292.416ZM978.215 215.145C978.215 236.219 974.936 254.6 968.377 270.289C961.818 285.977 952.449 298.972 940.268 309.275C928.321 319.578 913.681 327.305 896.347 332.456C879.013 337.608 859.57 340.183 838.02 340.183C828.182 340.183 816.704 339.715 803.586 338.778C790.468 338.076 777.585 336.437 764.936 333.861V96.7808C777.585 94.4392 790.702 92.9172 804.289 92.2148C818.109 91.2782 829.939 90.8098 839.777 90.8098C860.625 90.8098 879.481 93.1514 896.347 97.8344C913.447 102.518 928.087 109.893 940.268 119.962C952.449 130.031 961.818 142.909 968.377 158.597C974.936 174.286 978.215 193.135 978.215 215.145Z" fill="#00B1D2"/>
<path d="M978.323 246.054C978.323 229.663 980.782 215.38 985.701 203.204C990.855 190.793 997.531 180.491 1005.73 172.295C1013.93 164.1 1023.3 157.895 1033.84 153.68C1044.61 149.465 1055.62 147.358 1066.87 147.358C1093.1 147.358 1113.83 155.436 1129.06 171.593C1144.28 187.515 1151.9 211.048 1151.9 242.19C1151.9 245.234 1151.78 248.629 1151.55 252.376C1151.31 255.888 1151.08 259.049 1150.84 261.859H1032.08C1033.25 272.63 1038.29 281.177 1047.19 287.499C1056.09 293.821 1068.04 296.982 1083.03 296.982C1092.63 296.982 1102 296.163 1111.14 294.523C1120.51 292.65 1128.12 290.426 1133.98 287.85L1141.01 330.349C1138.19 331.754 1134.45 333.159 1129.76 334.564C1125.08 335.969 1119.81 337.139 1113.95 338.076C1108.33 339.247 1102.24 340.183 1095.68 340.886C1089.12 341.588 1082.56 341.94 1076 341.94C1059.37 341.94 1044.85 339.481 1032.43 334.564C1020.25 329.646 1010.06 322.973 1001.86 314.544C993.9 305.88 987.927 295.694 983.944 283.987C980.196 272.279 978.323 259.635 978.323 246.054ZM1101.3 226.034C1101.07 221.585 1100.25 217.253 1098.84 213.038C1097.67 208.823 1095.68 205.077 1092.87 201.799C1090.29 198.52 1086.89 195.828 1082.68 193.72C1078.7 191.613 1073.66 190.559 1067.57 190.559C1061.71 190.559 1056.68 191.613 1052.46 193.72C1048.24 195.594 1044.73 198.169 1041.92 201.447C1039.11 204.726 1036.88 208.589 1035.24 213.038C1033.84 217.253 1032.78 221.585 1032.08 226.034H1101.3Z" fill="#00B1D2"/>
<path d="M1205.65 337.022C1193.71 313.607 1181.52 286.211 1169.11 254.834C1156.93 223.458 1145.33 189.271 1134.32 152.275H1189.84C1192.18 161.407 1194.88 171.359 1197.92 182.13C1201.2 192.667 1204.48 203.438 1207.76 214.443C1211.27 225.214 1214.67 235.751 1217.95 246.054C1221.46 256.356 1224.86 265.723 1228.14 274.152C1231.18 265.723 1234.46 256.356 1237.98 246.054C1241.49 235.751 1244.89 225.214 1248.17 214.443C1251.68 203.438 1254.96 192.667 1258.01 182.13C1261.28 171.359 1264.1 161.407 1266.44 152.275H1320.55C1309.54 189.271 1297.83 223.458 1285.41 254.834C1273.23 286.211 1261.17 313.607 1249.22 337.022H1205.65Z" fill="#00B1D2"/>
<path d="M1479.76 244.298C1479.76 258.815 1477.66 272.162 1473.44 284.338C1469.22 296.28 1463.13 306.582 1455.17 315.246C1447.2 323.676 1437.6 330.232 1426.36 334.915C1415.35 339.598 1402.93 341.94 1389.11 341.94C1375.53 341.94 1363.11 339.598 1351.87 334.915C1340.86 330.232 1331.37 323.676 1323.41 315.246C1315.44 306.582 1309.23 296.28 1304.78 284.338C1300.33 272.162 1298.11 258.815 1298.11 244.298C1298.11 229.78 1300.33 216.55 1304.78 204.608C1309.47 192.667 1315.79 182.481 1323.76 174.051C1331.96 165.622 1341.56 159.066 1352.57 154.383C1363.81 149.699 1375.99 147.358 1389.11 147.358C1402.46 147.358 1414.64 149.699 1425.65 154.383C1436.9 159.066 1446.5 165.622 1454.47 174.051C1462.43 182.481 1468.64 192.667 1473.09 204.608C1477.54 216.55 1479.76 229.78 1479.76 244.298ZM1426.36 244.298C1426.36 228.141 1423.08 215.497 1416.52 206.365C1410.19 196.998 1401.06 192.315 1389.11 192.315C1377.17 192.315 1367.91 196.998 1361.35 206.365C1354.8 215.497 1351.52 228.141 1351.52 244.298C1351.52 260.454 1354.8 273.333 1361.35 282.933C1367.91 292.299 1377.17 296.982 1389.11 296.982C1401.06 296.982 1410.19 292.299 1416.52 282.933C1423.08 273.333 1426.36 260.454 1426.36 244.298Z" fill="#00B1D2"/>
<path d="M1601.84 246.054C1601.84 229.897 1598.21 217.019 1590.94 207.418C1583.68 197.584 1572.91 192.667 1558.62 192.667C1553.93 192.667 1549.6 192.901 1545.62 193.369C1541.64 193.603 1538.36 193.954 1535.78 194.423V288.904C1539.06 291.011 1543.28 292.767 1548.43 294.172C1553.82 295.577 1559.2 296.28 1564.59 296.28C1589.42 296.28 1601.84 279.538 1601.84 246.054ZM1655.25 244.649C1655.25 258.932 1653.49 271.928 1649.97 283.635C1646.46 295.343 1641.31 305.412 1634.51 313.841C1627.72 322.271 1619.29 328.827 1609.22 333.51C1599.14 338.193 1587.55 340.535 1574.43 340.535C1567.17 340.535 1560.38 339.832 1554.05 338.427C1547.73 337.022 1541.64 335.032 1535.78 332.456V402H1483.43V158.597C1488.11 157.192 1493.5 155.905 1499.59 154.734C1505.68 153.329 1512 152.158 1518.56 151.221C1525.36 150.285 1532.15 149.582 1538.94 149.114C1545.97 148.412 1552.65 148.06 1558.97 148.06C1574.2 148.06 1587.78 150.402 1599.73 155.085C1611.68 159.534 1621.75 165.973 1629.95 174.403C1638.15 182.598 1644.35 192.667 1648.57 204.608C1653.02 216.55 1655.25 229.897 1655.25 244.649Z" fill="#00B1D2"/>
<path d="M1711.65 299.441C1721.25 299.441 1728.04 298.504 1732.02 296.631C1736.01 294.758 1738 291.128 1738 285.743C1738 281.528 1735.42 277.899 1730.27 274.855C1725.11 271.576 1717.27 267.947 1706.73 263.966C1698.53 260.922 1691.03 257.761 1684.24 254.483C1677.68 251.205 1672.06 247.342 1667.37 242.893C1662.69 238.21 1659.06 232.707 1656.48 226.385C1653.9 220.063 1652.62 212.453 1652.62 203.555C1652.62 186.227 1659.06 172.529 1671.94 162.461C1684.82 152.392 1702.51 147.358 1725 147.358C1736.24 147.358 1747.02 148.412 1757.32 150.519C1767.63 152.392 1775.83 154.5 1781.92 156.841L1772.78 197.584C1766.69 195.477 1760.02 193.603 1752.76 191.964C1745.73 190.325 1737.76 189.506 1728.86 189.506C1712.46 189.506 1704.27 194.072 1704.27 203.204C1704.27 205.311 1704.62 207.184 1705.32 208.823C1706.02 210.462 1707.43 212.101 1709.54 213.74C1711.65 215.145 1714.46 216.784 1717.97 218.658C1721.72 220.297 1726.4 222.17 1732.02 224.277C1743.5 228.492 1752.99 232.707 1760.49 236.922C1767.98 240.902 1773.84 245.351 1778.05 250.268C1782.5 254.952 1785.55 260.22 1787.19 266.074C1789.06 271.928 1790 278.718 1790 286.445C1790 304.709 1783.09 318.524 1769.27 327.89C1755.68 337.256 1736.36 341.94 1711.29 341.94C1694.9 341.94 1681.19 340.535 1670.18 337.725C1659.41 334.915 1651.91 332.573 1647.7 330.7L1656.48 288.201C1665.38 291.714 1674.52 294.523 1683.89 296.631C1693.26 298.504 1702.51 299.441 1711.65 299.441Z" fill="#00B1D2"/>
<g clip-path="url(#clip0_952_780)">
<path d="M155.06 427.7C168.359 427.7 179.14 423.16 179.14 417.56C179.14 411.96 168.359 407.42 155.06 407.42C141.761 407.42 130.98 411.96 130.98 417.56C130.98 423.16 141.761 427.7 155.06 427.7Z" fill="#262626"/>
<path d="M155.29 415.66C170.737 415.66 183.26 410.386 183.26 403.88C183.26 397.374 170.737 392.1 155.29 392.1C139.842 392.1 127.32 397.374 127.32 403.88C127.32 410.386 139.842 415.66 155.29 415.66Z" fill="#D9D9D9"/>
<path d="M154.75 408.18C185.65 408.18 210.7 397.632 210.7 384.62C210.7 371.608 185.65 361.06 154.75 361.06C123.849 361.06 98.7998 371.608 98.7998 384.62C98.7998 397.632 123.849 408.18 154.75 408.18Z" fill="#262626"/>
<path d="M131.36 420.14C131.36 420.14 143.36 460.07 155.09 460.07C166.82 460.07 178.88 420.2 178.88 420.2L131.36 420.14Z" fill="#262626"/>
<path d="M157.19 394.68C198.009 394.68 231.1 380.747 231.1 363.56C231.1 346.373 198.009 332.44 157.19 332.44C116.37 332.44 83.2798 346.373 83.2798 363.56C83.2798 380.747 116.37 394.68 157.19 394.68Z" fill="#66676B"/>
<path d="M155.26 187.7C170.707 187.7 183.23 182.426 183.23 175.92C183.23 169.414 170.707 164.14 155.26 164.14C139.813 164.14 127.29 169.414 127.29 175.92C127.29 182.426 139.813 187.7 155.26 187.7Z" fill="#D9D9D9"/>
<path d="M155.03 174.97C168.329 174.97 179.11 170.43 179.11 164.83C179.11 159.23 168.329 154.69 155.03 154.69C141.731 154.69 130.95 159.23 130.95 164.83C130.95 170.43 141.731 174.97 155.03 174.97Z" fill="#262626"/>
<path d="M155.26 162.92C170.707 162.92 183.23 157.646 183.23 151.14C183.23 144.634 170.707 139.36 155.26 139.36C139.813 139.36 127.29 144.634 127.29 151.14C127.29 157.646 139.813 162.92 155.26 162.92Z" fill="#66676B"/>
<path d="M154.72 155.44C185.62 155.44 210.67 144.892 210.67 131.88C210.67 118.868 185.62 108.32 154.72 108.32C123.82 108.32 98.77 118.868 98.77 131.88C98.77 144.892 123.82 155.44 154.72 155.44Z" fill="#262626"/>
<path opacity="0.11" d="M154.78 488.27C171.868 488.27 185.72 483.99 185.72 478.71C185.72 473.43 171.868 469.15 154.78 469.15C137.692 469.15 123.84 473.43 123.84 478.71C123.84 483.99 137.692 488.27 154.78 488.27Z" fill="#262626"/>
<path d="M227.07 3.14014H88.5801C51.5991 3.14014 21.6201 33.1169 21.6201 70.0951C21.6201 107.073 51.5991 137.05 88.5801 137.05H227.07C264.051 137.05 294.03 107.073 294.03 70.0951C294.03 33.1169 264.051 3.14014 227.07 3.14014Z" fill="#D9D9D9" stroke="#66676B" stroke-width="6" stroke-miterlimit="10"/>
<path d="M228.56 120.77C256.964 120.77 279.99 97.7442 279.99 69.3402C279.99 40.9362 256.964 17.9102 228.56 17.9102C200.156 17.9102 177.13 40.9362 177.13 69.3402C177.13 97.7442 200.156 120.77 228.56 120.77Z" fill="#262626" stroke="#1D1D1B" stroke-width="7" stroke-miterlimit="10"/>
<path d="M228.26 95.0602C242.299 95.0602 253.68 83.6793 253.68 69.6402C253.68 55.6011 242.299 44.2202 228.26 44.2202C214.221 44.2202 202.84 55.6011 202.84 69.6402C202.84 83.6793 214.221 95.0602 228.26 95.0602Z" fill="black"/>
<path d="M237.92 45.5099C237.92 45.5099 248.38 50.9899 251.67 59.4199C259.537 60.3178 267.467 60.5253 275.37 60.0399C274.45 54.6799 269.37 37.0399 249.23 26.3999C250.39 44.4299 237.92 45.5099 237.92 45.5099Z" fill="#878787"/>
<path d="M214.68 91.6802C214.68 91.6802 206.58 86.7902 204.37 79.2802C194.93 78.1402 184.37 76.7002 181.66 76.7002C182.58 87.2502 189.46 102.23 207.18 112.01C206 94.2902 214.68 91.6802 214.68 91.6802Z" fill="#878787"/>
<path opacity="0.7" d="M227.99 71.99C229.448 71.99 230.63 70.808 230.63 69.35C230.63 67.892 229.448 66.71 227.99 66.71C226.532 66.71 225.35 67.892 225.35 69.35C225.35 70.808 226.532 71.99 227.99 71.99Z" fill="white"/>
<path d="M88.8699 120.78C117.274 120.78 140.3 97.7539 140.3 69.3499C140.3 40.9459 117.274 17.9199 88.8699 17.9199C60.4659 17.9199 37.4399 40.9459 37.4399 69.3499C37.4399 97.7539 60.4659 120.78 88.8699 120.78Z" fill="#262626" stroke="#1D1D1B" stroke-width="7" stroke-miterlimit="10"/>
<path d="M88.5699 95.0602C102.609 95.0602 113.99 83.6793 113.99 69.6402C113.99 55.6011 102.609 44.2202 88.5699 44.2202C74.5308 44.2202 63.1499 55.6011 63.1499 69.6402C63.1499 83.6793 74.5308 95.0602 88.5699 95.0602Z" fill="black"/>
<path d="M88.1601 93.7098C92.3464 93.7098 95.7401 92.7785 95.7401 91.6298C95.7401 90.481 92.3464 89.5498 88.1601 89.5498C83.9738 89.5498 80.5801 90.481 80.5801 91.6298C80.5801 92.7785 83.9738 93.7098 88.1601 93.7098Z" fill="#ADADAD"/>
<path d="M114.09 71.4598C113.86 74.0998 113.75 80.1798 106.59 88.0898C107.1 90.8398 111.23 107.69 112.49 110.9C115.58 109.9 132.66 98.2798 136.28 75.7698C119.59 82.6598 114.09 69.0498 114.09 71.4598Z" fill="#878787"/>
<path d="M63.2999 64.8099C63.2999 64.8099 65.4599 53.9799 73.3899 48.8799C70.7599 40.2799 66.7399 29.7299 65.9399 27.6699C60.7799 29.7299 44.0399 41.8799 41.6299 63.2699C57.9999 56.4899 63.2999 64.8099 63.2999 64.8099Z" fill="#878787"/>
<path opacity="0.7" d="M88.2997 71.99C89.7577 71.99 90.9397 70.808 90.9397 69.35C90.9397 67.892 89.7577 66.71 88.2997 66.71C86.8416 66.71 85.6597 67.892 85.6597 69.35C85.6597 70.808 86.8416 71.99 88.2997 71.99Z" fill="white"/>
<path d="M229.6 93.1898C233.786 93.1898 237.18 92.2586 237.18 91.1098C237.18 89.961 233.786 89.0298 229.6 89.0298C225.414 89.0298 222.02 89.961 222.02 91.1098C222.02 92.2586 225.414 93.1898 229.6 93.1898Z" fill="#ADADAD"/>
<path d="M14.5301 60.9098C14.5301 60.9098 6.79011 59.0198 6.36011 53.9098C3.72011 54.3698 1.7301 51.2798 1.7601 49.7698C1.7901 48.2598 2.6501 32.5798 7.9201 29.9698C14.3301 31.4698 -1.07989 56.2898 11.1901 48.1098C9.34011 45.2998 15.5101 28.5698 21.7401 27.3398C26.6501 27.9798 16.8501 42.2298 16.3301 43.5098C15.8101 44.7898 16.7001 47.1598 17.5001 47.0798C20.3701 45.6598 26.8601 53.0798 29.0501 49.0798C29.3801 48.2598 26.1801 30.7098 29.6601 30.8198C33.6001 29.6098 37.6601 55.4998 27.2301 55.3898C27.2301 55.4598 24.8101 63.4298 14.5301 60.9098Z" fill="#262626"/>
<path d="M50.8899 224.64C-13.5201 213.39 -1.18012 121.42 7.09988 62.3099C8.43988 55.7899 10.6899 53.1999 16.7299 53.7699C22.0999 54.2699 24.5399 57.1099 24.2099 62.9099C25.1199 119.55 5.88988 176.06 44.3599 202.45C47.5699 209.22 70.0499 222.83 50.8899 224.64Z" fill="#66676B"/>
<path d="M36.8998 202.51C31.2598 223.34 15.3798 219.09 20.8998 198.22C26.4198 177.35 42.4298 181.64 36.8998 202.51Z" fill="#262626"/>
<path d="M297.27 61.3998C297.27 61.3998 305.01 59.5098 305.44 54.3998C308.07 54.8598 310.07 51.7698 310.04 50.2598C310.01 48.7498 309.15 33.0698 303.88 30.4598C297.46 31.9598 312.88 56.7798 300.61 48.5998C302.46 45.7898 296.29 29.0598 290.06 27.8398C285.15 28.4698 294.95 42.7198 295.47 44.0098C295.99 45.2998 295.09 47.6598 294.3 47.5798C291.43 46.1598 284.94 53.5798 282.75 49.5798C282.42 48.7498 285.62 31.1998 282.14 31.3098C278.2 30.1098 274.14 55.9898 284.57 55.8898C284.57 55.9998 287 63.9198 297.27 61.3998Z" fill="#262626"/>
<path d="M260.91 225.13C325.32 213.88 313 121.91 304.7 62.7999C303.36 56.2799 301.11 53.6999 295.06 54.2599C289.7 54.7599 287.25 57.5999 287.59 63.4099C286.68 120.05 305.91 176.55 267.44 202.94C264.22 209.71 241.75 223.33 260.91 225.13Z" fill="#66676B"/>
<path d="M274.9 203C280.54 223.84 296.42 219.58 290.9 198.72C285.38 177.86 269.37 182.13 274.9 203Z" fill="#262626"/>
<path d="M235.94 377.22C235.94 377.22 96.2999 377.9 79.7899 377.9C63.2799 377.9 56.2699 351.08 56.2699 351.08C56.2699 351.08 30.5899 239.87 27.1799 221.76C23.7699 203.65 28.7599 175.49 59.2699 175.49H256.27C285.78 175.49 287.16 205.25 282.34 226.58L255.3 354.75C255.3 354.75 251.07 377.22 235.94 377.22Z" fill="#D9D9D9"/>
<path d="M223 359.17C223 359.17 104.71 359.76 90.73 359.76C76.75 359.76 70.81 337 70.81 337C70.81 337 49.06 242.8 46.18 227.46C43.3 212.12 47.52 188.26 73.36 188.26H240.27C265.27 188.26 266.43 213.47 262.35 231.54L239.35 340.11C239.35 340.11 235.83 359.17 223 359.17Z" fill="#002A33" stroke="#1D1D1B" stroke-width="3" stroke-miterlimit="10"/>
<path opacity="0.42" d="M111.34 189.61L71.21 189.84C71.21 189.84 56.21 190.28 50.05 203.06C43.89 215.84 47.62 229.52 47.62 229.52L73.62 340.06L111.34 189.61Z" fill="white"/>
</g>
<defs>
<clipPath id="clip0_952_780">
<rect width="312" height="489" fill="white"/>
</clipPath>
</defs>
</svg>
